<?xml version="1.0" encoding="utf-8"?>
<!DOCTYPE svg PUBLIC "-//W3C//DTD SVG 1.1//EN" "http://www.w3.org/Graphics/SVG/1.1/DTD/svg11.dtd">
<svg version="1.1" id="Capa_1" xmlns="http://www.w3.org/2000/svg" xmlns:xlink="http://www.w3.org/1999/xlink" x="0px" y="0px"
	 width="40" height="40" viewBox="0 0 612 792" enable-background="new 0 0 612 792" xml:space="preserve">
	<g>
		<g>
			<g>
				<path fill="#FFFFFF" stroke="#FFFFFF" stroke-width="10" d="M504.502,262.619H107.497c-4.295-0.365-8.551,1.054-11.769,3.922c-3.165,3.04-4.63,7.44-3.923,11.77
					l40.798,355.421c4.785,39.186,38.199,68.551,77.675,68.26h197.717c40.587,0.578,74.774-30.191,78.46-70.613l33.737-354.637
					c0.209-3.804-1.218-7.516-3.923-10.2C513.053,263.673,508.797,262.254,504.502,262.619z M455.073,629.809
					c-2.467,23.892-23.076,41.754-47.076,40.799H210.28c-23.568,0.956-43.827-16.556-46.292-40.015l-39.229-336.59H487.24
					L455.073,629.809z"/>
				<path fill="#FFFFFF" stroke="#FFFFFF" stroke-width="10" d="M561.778,160.622H400.151v-25.108c0.871-24.25-18.081-44.614-42.332-45.485
					c-0.796-0.028-1.593-0.036-2.389-0.021h-98.859c-24.263-0.449-44.293,18.855-44.742,43.117c-0.016,0.796-0.008,1.593,0.021,2.389
					v25.107H50.222c-8.667,0-15.691,7.025-15.691,15.692c0,8.667,7.024,15.692,15.691,15.692h511.556
					c8.667,0,15.692-7.025,15.692-15.692C577.47,167.646,570.443,160.622,561.778,160.622z M368.767,135.514v25.107H243.232v-25.107
					c-0.885-6.876,3.974-13.167,10.85-14.052c0.825-0.106,1.658-0.129,2.487-0.07h98.859c6.916-0.49,12.92,4.718,13.409,11.635
					C368.898,133.856,368.873,134.689,368.767,135.514z"/>
			</g>
		</g>
	</g>
</svg>
